<svg xmlns="http://www.w3.org/2000/svg" width="30.002" height="30.002" viewBox="0 0 30.002 30.002">
  <g id="Close" transform="translate(-1824.856 -46.499)">
    <path id="Path_62690" data-name="Path 62690" d="M6,9.857A2.357,2.357,0,0,1,8.357,7.5h33a2.357,2.357,0,1,1,0,4.714h-33A2.357,2.357,0,0,1,6,9.857Z" transform="translate(1815.31 72.107) rotate(-45)" fill="#fff"/>
    <path id="Path_62691" data-name="Path 62691" d="M0,2.357A2.357,2.357,0,0,0,2.357,4.714h33a2.357,2.357,0,1,0,0-4.714h-33A2.357,2.357,0,0,0,0,2.357Z" transform="translate(1851.524 76.501) rotate(-135)" fill="#fff"/>
  </g>
</svg>
